<svg xmlns="http://www.w3.org/2000/svg" width="24" height="24" viewBox="0 0 24 24">
  <style>
    :root { color-scheme: light dark; }
    path { fill: rgb(24, 25, 26); }
    @media (prefers-color-scheme: dark) {
      path { fill: rgba(249, 249, 250, 0.8); }
    }
  </style>
  <path d="M11,22c-1.3,0-2.4-0.2-3.5-0.7s-2-1.1-2.8-1.9c-0.8-0.8-1.5-1.8-1.9-2.8C2.2,15.4,2,14.3,2,13
    c0-2.5,0.9-4.6,2.6-6.4S8.5,4,11,4h0.2L9.6,2.4L11,1l4,4l-4,4L9.6,7.5L11.2,6H11C9.1,6,7.4,6.7,6,8s-2,3-2,5s0.7,3.6,2,5s3,2,5,2
    c0.6,0,1.2-0.1,1.7-0.2s1.1-0.4,1.6-0.6l1.4,1.5c-0.7,0.5-1.5,0.8-2.3,1C12.7,21.9,11.9,22,11,22z M17,19l-6-6l6-6l6,6L17,19z
     M17,16.1l3.1-3.1L17,9.8L13.9,13L17,16.1z"/>
</svg>
