<svg xmlns="http://www.w3.org/2000/svg" width="24" height="24" viewBox="0 0 24 24">
  <style>
    :root { color-scheme: light dark; }
    path { fill: rgb(24, 25, 26); }
    @media (prefers-color-scheme: dark) {
      path { fill: rgba(249, 249, 250, 0.8); }
    }
  </style>
  <path d="M13,22c-0.8,0-1.7-0.1-2.5-0.4s-1.6-0.6-2.3-1l1.5-1.5c0.5,0.3,1.1,0.5,1.6,0.6c0.6,0.1,1.1,0.2,1.7,0.2
    c1.9,0,3.6-0.7,5-2c1.4-1.4,2-3,2-5s-0.7-3.6-2-5c-1.4-1.4-3-2-5-2h-0.1l1.6,1.6L13,9L9,5l4-4l1.4,1.4L12.9,4H13
    c2.5,0,4.6,0.9,6.4,2.6S22,10.5,22,13c0,1.3-0.2,2.4-0.7,3.5c-0.5,1.1-1.1,2-1.9,2.8c-0.8,0.8-1.8,1.5-2.9,1.9S14.3,22,13,22z M7,19
    l-6-6l6-6l6,6L7,19z M7,16.1l3.2-3.1L7,9.8L3.9,13L7,16.1z"/>
</svg>
