<svg xmlns="http://www.w3.org/2000/svg" width="24" height="24" viewBox="0 0 24 24">
  <style>
    :root { color-scheme: light dark; }
    path { fill: rgb(24, 25, 26); }
    @media (prefers-color-scheme: dark) {
      path { fill: rgba(249, 249, 250, 0.8); }
    }
  </style>
  <path d="M8.6,0.5c0.6-0.2,1.1-0.3,1.7-0.4C10.8,0,11.4,0,12,0c1.6,0,3,0.3,4.4,0.8s2.6,1.3,3.7,2.3c1.1,1,2,2.2,2.6,3.5
    C23.5,8,23.9,9.4,24,11h-2c-0.1-1.2-0.4-2.3-0.9-3.4c-0.5-1-1.2-2-2-2.8s-1.7-1.4-2.8-1.9c-1-0.5-2.2-0.8-3.4-0.9l1.5,1.5L13.1,5
    L8.6,0.5z M15.4,23.5c-0.6,0.2-1.1,0.3-1.7,0.4C13.2,24,12.6,24,12,24c-1.6,0-3-0.3-4.4-0.8c-1.4-0.6-2.6-1.3-3.7-2.3
    s-2-2.2-2.6-3.5S0.1,14.6,0,13h2c0.1,1.2,0.5,2.3,1,3.4c0.5,1,1.2,2,2,2.8c0.8,0.8,1.7,1.4,2.8,1.9s2.2,0.8,3.4,0.9l-1.6-1.6
    l1.4-1.4L15.4,23.5z"/>
  <path d="M17,17H7V7h10V17z M8,15h8l-2.6-3.5L11.5,14l-1.4-1.9L8,15z"/>
</svg>
