<svg xmlns="http://www.w3.org/2000/svg" width="24" height="24" viewBox="0 0 24 24">
  <style>
    :root { color-scheme: light dark; }
    path { fill: rgb(24, 25, 26); }
    @media (prefers-color-scheme: dark) {
      path { fill: rgba(249, 249, 250, 0.8); }
    }
  </style>
  <path d="M5.1,16c-0.4-0.6-0.6-1.3-0.8-1.9c-0.2-0.7-0.3-1.3-0.3-2c0-2.2,0.8-4.1,2.3-5.7S9.8,4,12,4h0.2l-1.6-1.6L12,1
    l4,4l-4,4l-1.4-1.4L12.2,6H12c-1.7,0-3.1,0.6-4.3,1.8S6,10.4,6,12.1c0,0.4,0.1,0.9,0.2,1.3s0.3,0.8,0.4,1.2L5.1,16z M12,23l-4-4l4-4
    l1.4,1.4L11.8,18H12c1.7,0,3.1-0.6,4.3-1.8c1.2-1.2,1.8-2.6,1.8-4.3c0-0.4,0-0.9-0.1-1.3c-0.1-0.4-0.3-0.8-0.5-1.2l1.5-1.5
    c0.4,0.6,0.6,1.3,0.8,1.9s0.3,1.4,0.3,2.1c0,2.2-0.8,4.1-2.3,5.7C16.1,19.2,14.2,20,12,20h-0.2l1.6,1.6L12,23z"/>
</svg>
